[Header]
FileType HTR
DataType HTRS
FileVersion 1
NumSegments 64
NumFrames 4
DataFrameRate 24
EulerRotationOrder ZYX
CalibrationUnits mm
RotationUnits Degrees
GlobalAxisofGravity Y
BoneLengthAxis Y
ScaleFactor 1.0
[SegmentNames&Hierarchy]
Hips	GLOBAL
Spine	Hips
Spine1	Spine
Spine2	Spine1
Neck	Spine2
Head	Neck
LeftEye	Head
RightEye	Head
LeftShoulder	Spine2
LeftArm	LeftShoulder
LeftForeArm	LeftArm
LeftHand	LeftForeArm
LeftHandThumb1	LeftHand
LeftHandThumb2	LeftHandThumb1
LeftHandThumb3	LeftHandThumb2
LeftHandThumb4	LeftHandThumb3
LeftHandIndex1	LeftHand
LeftHandIndex2	LeftHandIndex1
LeftHandIndex3	LeftHandIndex2
LeftHandIndex4	LeftHandIndex3
LeftHandMiddle1	LeftHand
LeftHandMiddle2	LeftHandMiddle1
LeftHandMiddle3	LeftHandMiddle2
LeftHandMiddle4	LeftHandMiddle3
LeftHandRing1	LeftHand
LeftHandRing2	LeftHandRing1
LeftHandRing3	LeftHandRing2
LeftHandRing4	LeftHandRing3
LeftHandPinky1	LeftHand
LeftHandPinky2	LeftHandPinky1
LeftHandPinky3	LeftHandPinky2
LeftHandPinky4	LeftHandPinky3
RightShoulder	Spine2
RightArm	RightShoulder
RightForeArm	RightArm
RightHand	RightForeArm
RightHandPinky1	RightHand
RightHandPinky2	RightHandPinky1
RightHandPinky3	RightHandPinky2
RightHandPinky4	RightHandPinky3
RightHandRing1	RightHand
RightHandRing2	RightHandRing1
RightHandRing3	RightHandRing2
RightHandRing4	RightHandRing3
RightHandMiddle1	RightHand
RightHandMiddle2	RightHandMiddle1
RightHandMiddle3	RightHandMiddle2
RightHandMiddle4	RightHandMiddle3
RightHandIndex1	RightHand
RightHandIndex2	RightHandIndex1
RightHandIndex3	RightHandIndex2
RightHandIndex4	RightHandIndex3
RightHandThumb1	RightHand
RightHandThumb2	RightHandThumb1
RightHandThumb3	RightHandThumb2
RightHandThumb4	RightHandThumb3
LeftUpLeg	Hips
LeftLeg	LeftUpLeg
LeftFoot	LeftLeg
LeftToeBase	LeftFoot
RightUpLeg	Hips
RightLeg	RightUpLeg
RightFoot	RightLeg
RightToeBase	RightFoot
[BasePosition]
Hips	0	0	0	0	0	0	1
Spine	0	0	0	0	0	0	1
Spine1	0	0	0	0	0	0	1
Spine2	0	0	0	0	0	0	1
Neck	0	0	0	0	0	0	1
Head	0	0	0	0	0	0	1
LeftEye	0	0	0	0	0	0	1
RightEye	0	0	0	0	0	0	1
LeftShoulder	0	0	0	0	0	0	1
LeftArm	0	0	0	0	0	0	1
LeftForeArm	0	0	0	0	0	0	1
LeftHand	0	0	0	0	0	0	1
LeftHandThumb1	0	0	0	0	0	0	1
LeftHandThumb2	0	0	0	0	0	0	1
LeftHandThumb3	0	0	0	0	0	0	1
LeftHandThumb4	0	0	0	0	0	0	1
LeftHandIndex1	0	0	0	0	0	0	1
LeftHandIndex2	0	0	0	0	0	0	1
LeftHandIndex3	0	0	0	0	0	0	1
LeftHandIndex4	0	0	0	0	0	0	1
LeftHandMiddle1	0	0	0	0	0	0	1
LeftHandMiddle2	0	0	0	0	0	0	1
LeftHandMiddle3	0	0	0	0	0	0	1
LeftHandMiddle4	0	0	0	0	0	0	1
LeftHandRing1	0	0	0	0	0	0	1
LeftHandRing2	0	0	0	0	0	0	1
LeftHandRing3	0	0	0	0	0	0	1
LeftHandRing4	0	0	0	0	0	0	1
LeftHandPinky1	0	0	0	0	0	0	1
LeftHandPinky2	0	0	0	0	0	0	1
LeftHandPinky3	0	0	0	0	0	0	1
LeftHandPinky4	0	0	0	0	0	0	1
RightShoulder	0	0	0	0	0	0	1
RightArm	0	0	0	0	0	0	1
RightForeArm	0	0	0	0	0	0	1
RightHand	0	0	0	0	0	0	1
RightHandPinky1	0	0	0	0	0	0	1
RightHandPinky2	0	0	0	0	0	0	1
RightHandPinky3	0	0	0	0	0	0	1
RightHandPinky4	0	0	0	0	0	0	1
RightHandRing1	0	0	0	0	0	0	1
RightHandRing2	0	0	0	0	0	0	1
RightHandRing3	0	0	0	0	0	0	1
RightHandRing4	0	0	0	0	0	0	1
RightHandMiddle1	0	0	0	0	0	0	1
RightHandMiddle2	0	0	0	0	0	0	1
RightHandMiddle3	0	0	0	0	0	0	1
RightHandMiddle4	0	0	0	0	0	0	1
RightHandIndex1	0	0	0	0	0	0	1
RightHandIndex2	0	0	0	0	0	0	1
RightHandIndex3	0	0	0	0	0	0	1
RightHandIndex4	0	0	0	0	0	0	1
RightHandThumb1	0	0	0	0	0	0	1
RightHandThumb2	0	0	0	0	0	0	1
RightHandThumb3	0	0	0	0	0	0	1
RightHandThumb4	0	0	0	0	0	0	1
LeftUpLeg	0	0	0	0	0	0	1
LeftLeg	0	0	0	0	0	0	1
LeftFoot	0	0	0	0	0	0	1
LeftToeBase	0	0	0	0	0	0	1
RightUpLeg	0	0	0	0	0	0	1
RightLeg	0	0	0	0	0	0	1
RightFoot	0	0	0	0	0	0	1
RightToeBase	0	0	0	0	0	0	1
[Hips]
55	-4.566876888	879.1955566	-26.28060341	-9.604516983	5.631156921	-0.8606774211	1.0
56	-3.405337572	887.3033447	-25.85224152	-9.672193527	5.014566898	-0.3368232548	1.0
57	-2.115632057	906.0375977	-23.35687256	-9.384573936	4.372151852	0.1599894017	1.0
58	-1.004213095	930.7630615	-19.65162849	-8.619920731	3.529807568	0.8495610356	1.0
[Spine]
55	9.234152094e-05	101.8158798	1.31520927	5.853946686	-2.876019001	-0.8141991496	1.0
56	9.234152094e-05	101.8158798	1.31520927	6.148291111	-2.726733685	-0.1892199367	1.0
57	9.234152094e-05	101.8158798	1.31520927	5.697352409	-2.587260008	0.1817301363	1.0
58	9.234152094e-05	101.8158798	1.31520927	4.799556732	-2.276767969	0.07431619614	1.0
[Spine1]
55	2.519402869e-06	100.8345108	-10.00804329	1.158100724	-0.7757606506	0.2795302272	1.0
56	2.519402869e-06	100.8345108	-10.00804329	1.162335277	-0.7451185584	0.2620796561	1.0
57	2.519402869e-06	100.8345108	-10.00804329	1.081453443	-0.714736104	0.2547198534	1.0
58	2.519402869e-06	100.8345108	-10.00804329	0.8850352168	-0.6373012662	0.2466234416	1.0
[Spine2]
55	3.4574864e-06	91.00010681	-13.73417091	1.156068206	-0.7810806632	0.2936419845	1.0
56	3.4574864e-06	91.00010681	-13.73417091	1.166711688	-0.7482889295	0.2730052471	1.0
57	3.4574864e-06	91.00010681	-13.73417091	1.076902628	-0.7160291672	0.2678032517	1.0
58	3.4574864e-06	91.00010681	-13.73417091	0.8822749853	-0.6384513378	0.2563427687	1.0
[Neck]
55	6.334285445e-06	166.7166901	-25.16167831	9.791164398	0.1741044074	-0.5742294788	1.0
56	6.334285445e-06	166.7166901	-25.16167831	9.861914635	0.1612034887	-0.567458868	1.0
57	6.334285445e-06	166.7166901	-25.16167831	10.0399189	0.1589859277	-0.6667240858	1.0
58	6.334285445e-06	166.7166901	-25.16167831	10.17647457	0.1632734388	-0.6932461262	1.0
[Head]
55	-4.242318937e-06	96.17874908	16.85007477	8.082139015	1.237963557	-1.454434037	1.0
56	-4.242318937e-06	96.17874908	16.85007477	7.724869251	0.6812130809	-1.527670145	1.0
57	-4.242318937e-06	96.17874908	16.85007477	8.016904831	-0.03368977457	-1.965417504	1.0
58	-4.242318937e-06	96.17874908	16.85007477	8.467535973	-0.7516054511	-2.292692184	1.0
[LeftEye]
55	30.67560577	64.09507751	92.83554077	0	0	0	1.0
56	30.67560577	64.09507751	92.83554077	0	0	0	1.0
57	30.67560577	64.09507751	92.83554077	0	0	0	1.0
58	30.67560577	64.09507751	92.83554077	0	0	0	1.0
[RightEye]
55	-30.67550468	64.09500122	92.83547211	0	0	0	1.0
56	-30.67550468	64.09500122	92.83547211	0	0	0	1.0
57	-30.67550468	64.09500122	92.83547211	0	0	0	1.0
58	-30.67550468	64.09500122	92.83547211	0	0	0	1.0
[LeftShoulder]
55	45.70446396	109.4598465	-26.27988052	28.49594307	-5.840413094	9.452801704	1.0
56	45.70446396	109.4598465	-26.27988052	28.29224777	-5.538977623	9.295536041	1.0
57	45.70446396	109.4598465	-26.27988052	27.57855606	-4.612293243	8.58475399	1.0
58	45.70446396	109.4598465	-26.27988052	26.98038101	-3.534428596	7.60473299	1.0
[LeftArm]
55	105.9236984	-5.245829105	-22.32120132	-88.17705536	-4.797266483	50.02226639	1.0
56	105.9236984	-5.245829105	-22.32120132	-88.90061951	-4.212149143	48.6012764	1.0
57	105.9236984	-5.245829105	-22.32120132	-90.16161346	-4.614744186	48.26836014	1.0
58	105.9236984	-5.245829105	-22.32120132	-91.31070709	-4.886999607	48.8835144	1.0
[LeftForeArm]
55	278.4151917	-0.0008942864952	0.0003745891154	-14.30523491	-64.37020111	16.59369278	1.0
56	278.4151917	-0.0008942864952	0.0003745891154	-15.13703823	-66.30513	16.33370209	1.0
57	278.4151917	-0.0008942864952	0.0003745891154	-16.37430763	-67.52794647	16.55664063	1.0
58	278.4151917	-0.0008942864952	0.0003745891154	-18.10173607	-68.01638794	17.35725784	1.0
[LeftHand]
55	283.2883911	-0.0001744071778	0.0003780452244	-58.40112686	-10.79873466	22.80454826	1.0
56	283.2883911	-0.0001744071778	0.0003780452244	-56.03418732	-11.32586002	24.05566978	1.0
57	283.2883911	-0.0001744071778	0.0003780452244	-53.94111633	-12.57113838	25.14374542	1.0
58	283.2883911	-0.0001744071778	0.0003780452244	-52.0382309	-13.99280071	26.7557869	1.0
[LeftHandThumb1]
55	24.66140366	-15.7504921	26.82413483	4.602909088	-1.923119426	11.7633009	1.0
56	24.66140366	-15.7504921	26.82413483	4.574198723	-1.919701934	11.74047947	1.0
57	24.66140366	-15.7504921	26.82413483	4.548577309	-1.916657567	11.72007561	1.0
58	24.66140366	-15.7504921	26.82413483	4.673513889	-1.93157506	11.81938744	1.0
[LeftHandThumb2]
55	32.29803848	-18.6469059	18.64681244	20.77952194	15.5262146	29.5673027	1.0
56	32.29803848	-18.6469059	18.64681244	20.78734779	15.56268883	29.5321064	1.0
57	32.29803848	-18.6469059	18.64681244	20.79445648	15.58922958	29.5105896	1.0
58	32.29803848	-18.6469059	18.64681244	20.7583313	15.50740814	29.53774071	1.0
[LeftHandThumb3]
55	26.52565002	-15.31492996	15.31471634	7.90494585	14.1794405	22.38378906	1.0
56	26.52565002	-15.31492996	15.31471634	7.882971287	14.18991375	22.36483002	1.0
57	26.52565002	-15.31492996	15.31471634	7.863356113	14.19926548	22.34788132	1.0
58	26.52565002	-15.31492996	15.31471634	7.958956242	14.1536684	22.43035889	1.0
[LeftHandThumb4]
55	19.54566956	-11.2850008	11.28492165	0	0	0	1.0
56	19.54566956	-11.2850008	11.28492165	0	0	0	1.0
57	19.54566956	-11.2850008	11.28492165	0	0	0	1.0
58	19.54566956	-11.2850008	11.28492165	0	0	0	1.0
[LeftHandIndex1]
55	91.09301758	-5.170834064	22.6007309	1.156195879	1.750101805	6.434690475	1.0
56	91.09301758	-5.170834064	22.6007309	1.147554159	1.772913933	6.300829887	1.0
57	91.09301758	-5.170834064	22.6007309	1.141303062	1.789315581	6.192882538	1.0
58	91.09301758	-5.170834064	22.6007309	1.159806371	1.740516067	6.627448082	1.0
[LeftHandIndex2]
55	36.76409531	-6.939138257e-05	0.0002924251603	1.864946842	-0.2047335804	-0.02779530175	1.0
56	36.76409531	-6.939138257e-05	0.0002924251603	1.862180829	-0.2028299272	-0.05624919757	1.0
57	36.76409531	-6.939138257e-05	0.0002924251603	1.859908819	-0.1947546154	-0.1289183646	1.0
58	36.76409531	-6.939138257e-05	0.0002924251603	1.871569395	-0.199999854	-0.02716368437	1.0
[LeftHandIndex3]
55	28.83062553	0.000385119667	-0.0004276481632	0.7077831626	-1.353501916	10.90599728	1.0
56	28.83062553	0.000385119667	-0.0004276481632	0.7103021741	-1.339773059	10.7858305	1.0
57	28.83062553	0.000385119667	-0.0004276481632	0.7121856809	-1.329433918	10.69528389	1.0
58	28.83062553	0.000385119667	-0.0004276481632	0.705627203	-1.364683867	11.00491524	1.0
[LeftHandIndex4]
55	23.92720032	0.0003702590766	0.0003355443478	0	0	0	1.0
56	23.92720032	0.0003702590766	0.0003355443478	0	0	0	1.0
57	23.92720032	0.0003702590766	0.0003355443478	0	0	0	1.0
58	23.92720032	0.0003702590766	0.0003355443478	0	0	0	1.0
[LeftHandMiddle1]
55	95.33401489	-0.000339240476	0.0001393702551	1.33400619	1.59785974	5.839107037	1.0
56	95.33401489	-0.000339240476	0.0001393702551	1.324723601	1.615238905	5.706521034	1.0
57	95.33401489	-0.000339240476	0.0001393702551	1.316779494	1.629259944	5.60002327	1.0
58	95.33401489	-0.000339240476	0.0001393702551	1.352515697	1.572616458	6.025513649	1.0
[LeftHandMiddle2]
55	36.98236847	1.961359158e-05	0.0001791696704	-1.122326732	0.1600858271	-0.003248389577	1.0
56	36.98236847	1.961359158e-05	0.0001791696704	-1.119375348	0.1669216007	-0.03259460256	1.0
57	36.98236847	1.961359158e-05	0.0001791696704	-1.116955161	0.1772963554	-0.1288612336	1.0
58	36.98236847	1.961359158e-05	0.0001791696704	-1.129650831	0.1533440351	-0.003114145715	1.0
[LeftHandMiddle3]
55	29.50921631	-0.0003937608562	0.0001644795993	0.07349482179	-1.132779241	10.99582767	1.0
56	29.50921631	-0.0003937608562	0.0001644795993	0.07573206723	-1.119946361	10.86906624	1.0
57	29.50921631	-0.0003937608562	0.0001644795993	0.07738096267	-1.110210061	10.77261639	1.0
58	29.50921631	-0.0003937608562	0.0001644795993	0.07169908285	-1.143989325	11.11076927	1.0
[LeftHandMiddle4]
55	28.3390255	-0.0003893481917	-9.504223272e-05	0	0	0	1.0
56	28.3390255	-0.0003893481917	-9.504223272e-05	0	0	0	1.0
57	28.3390255	-0.0003893481917	-9.504223272e-05	0	0	0	1.0
58	28.3390255	-0.0003893481917	-9.504223272e-05	0	0	0	1.0
[LeftHandRing1]
55	91.04527283	-0.4393950403	-18.65084648	-1.356976748	2.637953043	6.247875214	1.0
56	91.04527283	-0.4393950403	-18.65084648	-1.368787169	2.654772758	6.104974747	1.0
57	91.04527283	-0.4393950403	-18.65084648	-1.378855824	2.668874979	5.989285469	1.0
58	91.04527283	-0.4393950403	-18.65084648	-1.333885431	2.607252121	6.458934307	1.0
[LeftHandRing2]
55	31.54026794	-6.55346812e-05	0.000104257444	-4.93667984	0.655521512	-0.0568484515	1.0
56	31.54026794	-6.55346812e-05	0.000104257444	-4.925829887	0.6709020138	-0.05818059295	1.0
57	31.54026794	-6.55346812e-05	0.000104257444	-4.917560101	0.6839429736	-0.1610239446	1.0
58	31.54026794	-6.55346812e-05	0.000104257444	-4.96064949	0.6295101643	-0.05490870774	1.0
[LeftHandRing3]
55	29.37672424	-0.0004545861739	-6.864757597e-05	-2.903460979	-0.0967412442	9.390302658	1.0
56	29.37672424	-0.0004545861739	-6.864757597e-05	-2.895162582	-0.08725404739	9.271746635	1.0
57	29.37672424	-0.0004545861739	-6.864757597e-05	-2.887969017	-0.07960640639	9.182666779	1.0
58	29.37672424	-0.0004545861739	-6.864757597e-05	-2.921584845	-0.1103001162	9.484340668	1.0
[LeftHandRing4]
55	26.47452545	-0.0004980441299	7.070515267e-07	0	0	0	1.0
56	26.47452545	-0.0004980441299	7.070515267e-07	0	0	0	1.0
57	26.47452545	-0.0004980441299	7.070515267e-07	0	0	0	1.0
58	26.47452545	-0.0004980441299	7.070515267e-07	0	0	0	1.0
[LeftHandPinky1]
55	80.77777863	-4.886682034	-38.06066895	-6.368492126	4.044280529	5.675556183	1.0
56	80.77777863	-4.886682034	-38.06066895	-6.382495403	4.057454586	5.522483349	1.0
57	80.77777863	-4.886682034	-38.06066895	-6.394379139	4.069372177	5.397754669	1.0
58	80.77777863	-4.886682034	-38.06066895	-6.341779232	4.009967327	5.911067963	1.0
[LeftHandPinky2]
55	36.00034332	-2.252215199e-05	-0.0002623879409	0.07200299203	-0.637465477	-0.06581494212	1.0
56	36.00034332	-2.252215199e-05	-0.0002623879409	0.07666342705	-0.6277233958	-0.1084941104	1.0
57	36.00034332	-2.252215199e-05	-0.0002623879409	0.08151111752	-0.6125386357	-0.2095148712	1.0
58	36.00034332	-2.252215199e-05	-0.0002623879409	0.06174803153	-0.650367558	-0.06703293324	1.0
[LeftHandPinky3]
55	21.14211655	0.0001953828178	-2.864415183e-05	-4.525467873	1.652414203	5.380075455	1.0
56	21.14211655	0.0001953828178	-2.864415183e-05	-4.520096779	1.657562375	5.261660099	1.0
57	21.14211655	0.0001953828178	-2.864415183e-05	-4.515106201	1.661867976	5.172762394	1.0
58	21.14211655	0.0001953828178	-2.864415183e-05	-4.541200638	1.643181562	5.473553181	1.0
[LeftHandPinky4]
55	19.7568264	0.0001240565616	-0.0004430140834	0	0	0	1.0
56	19.7568264	0.0001240565616	-0.0004430140834	0	0	0	1.0
57	19.7568264	0.0001240565616	-0.0004430140834	0	0	0	1.0
58	19.7568264	0.0001240565616	-0.0004430140834	0	0	0	1.0
[RightShoulder]
55	-45.69969559	109.4617615	-26.28017426	30.73360062	25.696455	-11.89844704	1.0
56	-45.69969559	109.4617615	-26.28017426	30.90587234	26.02170181	-13.02183151	1.0
57	-45.69969559	109.4617615	-26.28017426	31.06230164	26.9050827	-14.56515503	1.0
58	-45.69969559	109.4617615	-26.28017426	31.27740288	27.79699135	-16.21362686	1.0
[RightArm]
55	-105.9284363	-5.247983932	-22.32098579	-83.64027405	-9.126959801	-41.63181686	1.0
56	-105.9284363	-5.247983932	-22.32098579	-83.96730804	-9.647761345	-41.75292587	1.0
57	-105.9284363	-5.247983932	-22.32098579	-84.45355988	-10.6034317	-41.7367363	1.0
58	-105.9284363	-5.247983932	-22.32098579	-85.09565735	-11.80813694	-41.70196915	1.0
[RightForeArm]
55	-278.4151917	-0.0003307921579	0.0001167631053	-19.13070107	62.14772797	-9.199918747	1.0
56	-278.4151917	-0.0003307921579	0.0001167631053	-19.15330505	61.57995605	-9.7038517	1.0
57	-278.4151917	-0.0003307921579	0.0001167631053	-18.87953758	60.80400848	-9.98524189	1.0
58	-278.4151917	-0.0003307921579	0.0001167631053	-18.40914536	59.83574295	-9.953107834	1.0
[RightHand]
55	-283.2883911	-1.581417109e-06	0.000558160129	-44.36707687	27.77830505	-17.59414673	1.0
56	-283.2883911	-1.581417109e-06	0.000558160129	-44.36394119	27.40965271	-19.3678894	1.0
57	-283.2883911	-1.581417109e-06	0.000558160129	-44.37286758	27.01221848	-21.96182632	1.0
58	-283.2883911	-1.581417109e-06	0.000558160129	-44.35739517	26.61556816	-24.57642937	1.0
[RightHandPinky1]
55	-80.76674652	-4.88459301	-38.06010437	-6.380043507	-4.033422947	-6.16985321	1.0
56	-80.76674652	-4.88459301	-38.06010437	-6.376845837	-4.034395695	-6.223664761	1.0
57	-80.76674652	-4.88459301	-38.06010437	-6.357091427	-4.014698982	-6.410552025	1.0
58	-80.76674652	-4.88459301	-38.06010437	-6.369603634	-4.026093006	-6.283582211	1.0
[RightHandPinky2]
55	-36.00034332	0.0003967665543	0.0005081442068	0.07580343634	0.6315710545	0.1080154255	1.0
56	-36.00034332	0.0003967665543	0.0005081442068	0.07515506446	0.6350670457	0.06826470047	1.0
57	-36.00034332	0.0003967665543	0.0005081442068	0.06770605594	0.6453567743	0.05329601094	1.0
58	-36.00034332	0.0003967665543	0.0005081442068	0.07221851498	0.6385250688	0.07522578537	1.0
[RightHandPinky3]
55	-21.14211655	0.0001513792522	0.0001479376951	-4.51781559	-1.765898824	-5.183320522	1.0
56	-21.14211655	0.0001513792522	0.0001479376951	-4.517012119	-1.766028404	-5.253005028	1.0
57	-21.14211655	0.0001513792522	0.0001479376951	-4.527449608	-1.76107645	-5.352053165	1.0
58	-21.14211655	0.0001513792522	0.0001479376951	-4.522032261	-1.763706446	-5.273949623	1.0
[RightHandPinky4]
55	-19.7568264	-0.000185219571	-9.839841368e-06	0	0	0	1.0
56	-19.7568264	-0.000185219571	-9.839841368e-06	0	0	0	1.0
57	-19.7568264	-0.000185219571	-9.839841368e-06	0	0	0	1.0
58	-19.7568264	-0.000185219571	-9.839841368e-06	0	0	0	1.0
[RightHandRing1]
55	-91.03588104	-0.4391434789	-18.65072441	-1.364679098	-2.645117044	-6.779322624	1.0
56	-91.03588104	-0.4391434789	-18.65072441	-1.362265706	-2.641924143	-6.831564426	1.0
57	-91.03588104	-0.4391434789	-18.65072441	-1.345093131	-2.622083187	-7.003440857	1.0
58	-91.03588104	-0.4391434789	-18.65072441	-1.355456829	-2.634488344	-6.889307976	1.0
[RightHandRing2]
55	-31.54026794	0.0002399729856	0.0004885121016	-4.927519798	-0.6690573692	0.07816331834	1.0
56	-31.54026794	0.0002399729856	0.0004885121016	-4.928689003	-0.6656945944	0.05769469589	1.0
57	-31.54026794	0.0002399729856	0.0004885121016	-4.945813656	-0.6465127468	0.05621648952	1.0
58	-31.54026794	0.0002399729856	0.0004885121016	-4.935363293	-0.6590806246	0.05708159506	1.0
[RightHandRing3]
55	-29.37672424	-0.0004160065437	-0.0003966063377	-2.880783081	-0.1056383774	-9.228860855	1.0
56	-29.37672424	-0.0004160065437	-0.0003966063377	-2.881573677	-0.1035072505	-9.298530579	1.0
57	-29.37672424	-0.0004160065437	-0.0003966063377	-2.89438343	-0.09444162995	-9.398025513	1.0
58	-29.37672424	-0.0004160065437	-0.0003966063377	-2.887087822	-0.1000785604	-9.319643021	1.0
[RightHandRing4]
55	-26.47452545	0.0002460821415	-2.294923434e-05	0	0	0	1.0
56	-26.47452545	0.0002460821415	-2.294923434e-05	0	0	0	1.0
57	-26.47452545	0.0002460821415	-2.294923434e-05	0	0	0	1.0
58	-26.47452545	0.0002460821415	-2.294923434e-05	0	0	0	1.0
[RightHandMiddle1]
55	-95.32502747	-0.0001631230261	0.0001679184206	1.32973218	-1.599751592	-6.400510788	1.0
56	-95.32502747	-0.0001631230261	0.0001679184206	1.331510305	-1.594287872	-6.45209074	1.0
57	-95.32502747	-0.0001631230261	0.0001679184206	1.34516561	-1.576818585	-6.606485367	1.0
58	-95.32502747	-0.0001631230261	0.0001679184206	1.336973667	-1.588600993	-6.502373695	1.0
[RightHandMiddle2]
55	-36.98236847	0.000150669599	-0.0002254552383	-1.120017767	-0.16568169	0.03782398999	1.0
56	-36.98236847	0.000150669599	-0.0002254552383	-1.120101929	-0.163763538	0.008078660816	1.0
57	-36.98236847	0.000150669599	-0.0002254552383	-1.125286222	-0.1577204317	0.003191663185	1.0
58	-36.98236847	0.000150669599	-0.0002254552383	-1.122337341	-0.1619360298	0.012432619	1.0
[RightHandMiddle3]
55	-29.50921631	-3.113244929e-06	-3.03402544e-06	0.09766362607	0.8889986873	-10.84900379	1.0
56	-29.50921631	-3.113244929e-06	-3.03402544e-06	0.09662141651	0.8947935104	-10.91921425	1.0
57	-29.50921631	-3.113244929e-06	-3.03402544e-06	0.09522149712	0.9037451744	-11.03287792	1.0
58	-29.50921631	-3.113244929e-06	-3.03402544e-06	0.09637131542	0.8967394829	-10.94510651	1.0
[RightHandMiddle4]
55	-28.3390255	8.05324089e-05	0.0005378770875	0	0	0	1.0
56	-28.3390255	8.05324089e-05	0.0005378770875	0	0	0	1.0
57	-28.3390255	8.05324089e-05	0.0005378770875	0	0	0	1.0
58	-28.3390255	8.05324089e-05	0.0005378770875	0	0	0	1.0
[RightHandIndex1]
55	-91.08280945	-5.167889595	22.60116386	1.147490263	-1.778717637	-6.992602348	1.0
56	-91.08280945	-5.167889595	22.60116386	1.153654695	-1.76349771	-7.043413162	1.0
57	-91.08280945	-5.167889595	22.60116386	1.159172773	-1.75229013	-7.201616287	1.0
58	-91.08280945	-5.167889595	22.60116386	1.153968334	-1.763790607	-7.095642567	1.0
[RightHandIndex2]
55	-36.76409531	0.0001922715601	0.0003235567128	1.862733126	0.201591596	0.06887879223	1.0
56	-36.76409531	0.0001922715601	0.0003235567128	1.862837434	0.2056171745	0.03305559978	1.0
57	-36.76409531	0.0001922715601	0.0003235567128	1.867523551	0.2033762485	0.02332755737	1.0
58	-36.76409531	0.0001922715601	0.0003235567128	1.864933252	0.2034484595	0.03880871087	1.0
[RightHandIndex3]
55	-28.83062553	-0.0004960121587	0.0004044897505	0.7318863869	1.111951232	-10.76894283	1.0
56	-28.83062553	-0.0004960121587	0.0004044897505	0.7307218909	1.118495345	-10.83843899	1.0
57	-28.83062553	-0.0004960121587	0.0004044897505	0.7289450765	1.128051519	-10.94117928	1.0
58	-28.83062553	-0.0004960121587	0.0004044897505	0.7303099632	1.120571733	-10.86107159	1.0
[RightHandIndex4]
55	-23.92720032	0.0002681470069	0.0002802013478	0	0	0	1.0
56	-23.92720032	0.0002681470069	0.0002802013478	0	0	0	1.0
57	-23.92720032	0.0002681470069	0.0002802013478	0	0	0	1.0
58	-23.92720032	0.0002681470069	0.0002802013478	0	0	0	1.0
[RightHandThumb1]
55	-24.64805984	-15.72714233	26.82626534	3.512298584	3.564671755	-11.06876373	1.0
56	-24.64805984	-15.72714233	26.82626534	3.513338089	3.564775229	-11.06953144	1.0
57	-24.64805984	-15.72714233	26.82626534	3.563123226	3.569049835	-11.10730839	1.0
58	-24.64805984	-15.72714233	26.82626534	3.535615683	3.566691399	-11.08642483	1.0
[RightHandThumb2]
55	-32.29771805	-18.6470871	18.64718437	22.29649734	-17.1048317	-30.79128265	1.0
56	-32.29771805	-18.6470871	18.64718437	22.29818153	-17.079422	-30.83098793	1.0
57	-32.29771805	-18.6470871	18.64718437	22.283638	-17.05425644	-30.82935715	1.0
58	-32.29771805	-18.6470871	18.64718437	22.29095459	-17.07662392	-30.81668854	1.0
[RightHandThumb3]
55	-26.52605057	-15.31449318	15.31445599	11.83331776	-19.31428146	-24.79693985	1.0
56	-26.52605057	-15.31449318	15.31445599	11.83412647	-19.31388474	-24.79767227	1.0
57	-26.52605057	-15.31449318	15.31445599	11.87259769	-19.29464722	-24.83375168	1.0
58	-26.52605057	-15.31449318	15.31445599	11.85129738	-19.30525017	-24.81380653	1.0
[RightHandThumb4]
55	-19.54580498	-11.28461742	11.28507042	0	0	0	1.0
56	-19.54580498	-11.28461742	11.28507042	0	0	0	1.0
57	-19.54580498	-11.28461742	11.28507042	0	0	0	1.0
58	-19.54580498	-11.28461742	11.28507042	0	0	0	1.0
[LeftUpLeg]
55	82.07781982	-67.51714325	-15.99555588	-24.98565483	2.309037447	13.71615887	1.0
56	82.07781982	-67.51714325	-15.99555588	-23.5737381	3.553174257	13.11280346	1.0
57	82.07781982	-67.51714325	-15.99555588	-21.20997238	4.713449478	12.22844982	1.0
58	82.07781982	-67.51714325	-15.99555588	-18.23013878	5.76367712	10.9777298	1.0
[LeftLeg]
55	-4.110157988e-06	-443.7047119	2.846426487	66.23841858	8.687855721	0.8161173463	1.0
56	-4.110157988e-06	-443.7047119	2.846426487	64.25330353	8.596246719	0.3171361685	1.0
57	-4.110157988e-06	-443.7047119	2.846426487	59.82439423	8.640257835	0.08881292492	1.0
58	-4.110157988e-06	-443.7047119	2.846426487	53.31100082	8.620533943	-0.2540272176	1.0
[LeftFoot]
55	4.716393505e-06	-444.278717	-29.82190704	-29.34881783	-1.856750369	-6.890729427	1.0
56	4.716393505e-06	-444.278717	-29.82190704	-28.57924461	-1.678638458	-6.270191669	1.0
57	4.716393505e-06	-444.278717	-29.82190704	-26.68717194	-1.308555722	-5.395463943	1.0
58	4.716393505e-06	-444.278717	-29.82190704	-23.86302757	-0.9200104475	-4.902802467	1.0
[LeftToeBase]
55	-2.960988058e-05	-87.28669739	107.1055984	-3.305824995	2.524591309e-06	-3.43720103e-06	1.0
56	-2.960988058e-05	-87.28669739	107.1055984	-3.500002146	-1.05795616e-05	-1.849006367e-06	1.0
57	-2.960988058e-05	-87.28669739	107.1055984	-3.715838671	-1.58797684e-05	6.344538406e-07	1.0
58	-2.960988058e-05	-87.28669739	107.1055984	-3.86959815	4.579636368e-07	-5.275209105e-07	1.0
[RightUpLeg]
55	-82.07795715	-67.51662445	-15.99559402	-29.05310059	-29.98223114	-6.077129841	1.0
56	-82.07795715	-67.51662445	-15.99559402	-28.01775169	-28.14466476	-6.531659603	1.0
57	-82.07795715	-67.51662445	-15.99559402	-25.88850784	-26.55144501	-6.804419041	1.0
58	-82.07795715	-67.51662445	-15.99559402	-23.38531303	-25.28873825	-7.032980919	1.0
[RightLeg]
55	8.435572454e-07	-443.7053833	2.861563921	62.82403946	4.575607777	-12.89859772	1.0
56	8.435572454e-07	-443.7053833	2.861563921	61.06922531	4.119263649	-13.12244129	1.0
57	8.435572454e-07	-443.7053833	2.861563921	56.79595947	3.197459221	-13.2729578	1.0
58	8.435572454e-07	-443.7053833	2.861563921	50.70959473	1.681870937	-13.55558491	1.0
[RightFoot]
55	9.644581951e-06	-444.2773132	-29.83789063	-21.86027908	4.280589581	13.29598427	1.0
56	9.644581951e-06	-444.2773132	-29.83789063	-20.90807533	3.388876915	13.84321117	1.0
57	9.644581951e-06	-444.2773132	-29.83789063	-19.10149956	2.453147888	14.11546516	1.0
58	9.644581951e-06	-444.2773132	-29.83789063	-16.19700432	1.630132079	14.07824039	1.0
[RightToeBase]
55	-2.360438157e-05	-87.28668976	107.1056061	1.203648448	-5.278452591e-07	-6.729630695e-05	1.0
56	-2.360438157e-05	-87.28668976	107.1056061	1.020908833	5.539633548e-06	-3.456012564e-05	1.0
57	-2.360438157e-05	-87.28668976	107.1056061	1.190713882	-6.950922398e-06	-6.207489787e-05	1.0
58	-2.360438157e-05	-87.28668976	107.1056061	1.088274479	1.633120701e-05	1.219039495e-05	1.0
[EndOfFile]
